<?xml version="1.0" encoding="UTF-8"?>
<svg width="21px" height="16px" viewBox="0 0 21 16" version="1.1" xmlns="http://www.w3.org/2000/svg" xmlns:xlink="http://www.w3.org/1999/xlink">
    <g id="Page-1" stroke="none" stroke-width="1" fill="none" fill-rule="evenodd">
        <g id="Loading" transform="translate(-336.000000, -35.000000)" fill-rule="nonzero">
            <g id="Bars/Navigation/Navigation-Bar">
                <g id="Outline-icon" transform="translate(335.000000, 31.000000)">
                    <rect id="Rectangle-3" x="0" y="0" width="24" height="24"></rect>
                    <path d="M2.5,7.5 C1.67157288,7.5 1,6.82842712 1,6 C1,5.17157288 1.67157288,4.5 2.5,4.5 C3.32842712,4.5 4,5.17157288 4,6 C4,6.82842712 3.32842712,7.5 2.5,7.5 Z M2.5,13.5 C1.67157288,13.5 1,12.8284271 1,12 C1,11.1715729 1.67157288,10.5 2.5,10.5 C3.32842712,10.5 4,11.1715729 4,12 C4,12.8284271 3.32842712,13.5 2.5,13.5 Z M2.5,19.5 C1.67157288,19.5 1,18.8284271 1,18 C1,17.1715729 1.67157288,16.5 2.5,16.5 C3.32842712,16.5 4,17.1715729 4,18 C4,18.8284271 3.32842712,19.5 2.5,19.5 Z M7,5 L21,5 C21.5522847,5 22,5.44771525 22,6 C22,6.55228475 21.5522847,7 21,7 L7,7 C6.44771525,7 6,6.55228475 6,6 C6,5.44771525 6.44771525,5 7,5 Z M7,11 L21,11 C21.5522847,11 22,11.4477153 22,12 C22,12.5522847 21.5522847,13 21,13 L7,13 C6.44771525,13 6,12.5522847 6,12 C6,11.4477153 6.44771525,11 7,11 Z M7,17 L21,17 C21.5522847,17 22,17.4477153 22,18 C22,18.5522847 21.5522847,19 21,19 L7,19 C6.44771525,19 6,18.5522847 6,18 C6,17.4477153 6.44771525,17 7,17 Z" id="Combined-Shape" fill="#3D3D3D"></path>
                </g>
            </g>
        </g>
    </g>
</svg>